<?xml version="1.0" encoding="UTF-8" standalone="no"?><!DOCTYPE svg PUBLIC "-//W3C//DTD SVG 1.1//EN" "http://www.w3.org/Graphics/SVG/1.1/DTD/svg11.dtd"><svg width="100%" height="100%" viewBox="0 0 3017 2659" version="1.1" xmlns="http://www.w3.org/2000/svg" xmlns:xlink="http://www.w3.org/1999/xlink" xml:space="preserve" xmlns:serif="http://www.serif.com/" style="fill-rule:evenodd;clip-rule:evenodd;stroke-linejoin:round;stroke-miterlimit:2;"><path d="M1646.52,546.884c0,-187.287 -152.053,-339.34 -339.339,-339.34l-678.68,0c-187.287,0 -339.34,152.053 -339.34,339.34l0,1306.46c0,187.286 152.053,339.339 339.34,339.339l678.68,0c187.286,0 339.339,-152.053 339.339,-339.339l0,-1306.46Z" style="fill:url(#_Linear1);"/><path d="M2560.54,701.56c0,-146.174 -118.675,-264.849 -264.849,-264.849l-1298.36,0c-146.175,0 -264.85,118.675 -264.85,264.849l0,529.699c0,146.174 118.675,264.849 264.85,264.849l1298.36,-0c146.174,-0 264.849,-118.675 264.849,-264.849l0,-529.699Z" style="fill:url(#_Linear2);"/><path d="M2829.87,391.264c0,-101.397 -82.322,-183.72 -183.72,-183.72l-683.141,0c-101.398,0 -183.72,82.323 -183.72,183.72l-0,367.44c-0,101.397 82.322,183.719 183.72,183.719l683.141,0c101.398,0 183.72,-82.322 183.72,-183.719l0,-367.44Z" style="fill:url(#_Linear3);"/><path d="M2104.91,1493.08c0,-214.418 -174.08,-388.498 -388.498,-388.498l-1327.91,-0c-214.419,-0 -388.499,174.08 -388.499,388.498l0,776.997c-0,214.419 174.08,388.499 388.499,388.499l1327.91,-0c214.418,-0 388.498,-174.08 388.498,-388.499l0,-776.997Z" style="fill:url(#_Linear4);"/><path d="M3016.24,1114.6c0,-210.562 -170.949,-381.512 -381.511,-381.512l-975.404,0c-210.562,0 -381.511,170.95 -381.511,381.512l-0,763.022c-0,210.562 170.949,381.511 381.511,381.511l975.404,0c210.562,0 381.511,-170.949 381.511,-381.511l0,-763.022Z" style="fill:url(#_Linear5);"/><circle cx="1550.14" cy="1200.54" r="756.992" style="fill:url(#_Linear6);"/><path d="M701.063,351.462c468.616,-468.616 1229.53,-468.616 1698.15,0c468.617,468.617 468.617,1229.53 0,1698.15c-468.616,468.617 -1229.53,468.617 -1698.15,0c-468.617,-468.616 -468.617,-1229.53 -0,-1698.15Z" style="fill:url(#_Linear7);"/><path d="M1533.4,443.544c-231.694,129.394 -388.4,377.057 -388.4,661.033c0,417.795 339.197,756.992 756.992,756.992l16.738,-0.424c-109.015,61.161 -234.772,95.96 -368.592,95.96c-417.795,-0 -756.992,-339.197 -756.992,-756.993c0,-412.196 330.167,-747.887 740.254,-756.568Z" style="fill:url(#_Linear8);"/><defs><linearGradient id="_Linear1" x1="0" y1="0" x2="1" y2="0" gradientUnits="userSpaceOnUse" gradientTransform="matrix(9.32199e-14,1985.14,-1522.4,1.21555e-13,967.836,207.544)"><stop offset="0" style="stop-color:#00e0ac;stop-opacity:0.2"/><stop offset="1" style="stop-color:#918cba;stop-opacity:0"/></linearGradient><linearGradient id="_Linear2" x1="0" y1="0" x2="1" y2="0" gradientUnits="userSpaceOnUse" gradientTransform="matrix(1.25546e-13,1059.4,-2050.32,6.48693e-14,1646.52,436.711)"><stop offset="0" style="stop-color:#918cba;stop-opacity:0.22"/><stop offset="1" style="stop-color:#918cba;stop-opacity:0"/></linearGradient><linearGradient id="_Linear3" x1="0" y1="0" x2="1" y2="0" gradientUnits="userSpaceOnUse" gradientTransform="matrix(7.21512e-14,734.879,-1178.32,4.49984e-14,2304.58,207.544)"><stop offset="0" style="stop-color:#918cba;stop-opacity:0.1"/><stop offset="1" style="stop-color:#918cba;stop-opacity:0"/></linearGradient><linearGradient id="_Linear4" x1="0" y1="0" x2="1" y2="0" gradientUnits="userSpaceOnUse" gradientTransform="matrix(1.4456e-13,1553.99,-2360.84,9.51547e-14,1052.45,1104.58)"><stop offset="0" style="stop-color:#918cba;stop-opacity:0.35"/><stop offset="1" style="stop-color:#918cba;stop-opacity:0"/></linearGradient><linearGradient id="_Linear5" x1="0" y1="0" x2="1" y2="0" gradientUnits="userSpaceOnUse" gradientTransform="matrix(1.19391e-13,1526.04,-1949.8,9.34433e-14,2147.02,733.085)"><stop offset="0" style="stop-color:#00e0ac;stop-opacity:0.15"/><stop offset="1" style="stop-color:#918cba;stop-opacity:0"/></linearGradient><linearGradient id="_Linear6" x1="0" y1="0" x2="1" y2="0" gradientUnits="userSpaceOnUse" gradientTransform="matrix(1513.98,0,0,1513.98,793.144,1200.54)"><stop offset="0" style="stop-color:#f2f3f9;stop-opacity:0.4"/><stop offset="1" style="stop-color:#918cba;stop-opacity:0"/></linearGradient><linearGradient id="_Linear7" x1="0" y1="0" x2="1" y2="0" gradientUnits="userSpaceOnUse" gradientTransform="matrix(1698.15,-1698.15,1698.15,1698.15,701.063,2049.61)"><stop offset="0" style="stop-color:#f2f3f9;stop-opacity:0.11"/><stop offset="1" style="stop-color:#918cba;stop-opacity:0"/></linearGradient><linearGradient id="_Linear8" x1="0" y1="0" x2="1" y2="0" gradientUnits="userSpaceOnUse" gradientTransform="matrix(1513.98,0,0,1513.98,793.144,1200.11)"><stop offset="0" style="stop-color:#f2f3f9;stop-opacity:0.74"/><stop offset="1" style="stop-color:#fff;stop-opacity:0"/></linearGradient></defs></svg>