<?xml version="1.0" encoding="UTF-8" standalone="no"?><!DOCTYPE svg PUBLIC "-//W3C//DTD SVG 1.1//EN" "http://www.w3.org/Graphics/SVG/1.1/DTD/svg11.dtd"><svg width="100%" height="100%" viewBox="0 0 8000 16000" version="1.1" xmlns="http://www.w3.org/2000/svg" xmlns:xlink="http://www.w3.org/1999/xlink" xml:space="preserve" xmlns:serif="http://www.serif.com/" style="fill-rule:evenodd;clip-rule:evenodd;stroke-linejoin:round;stroke-miterlimit:2;"><rect id="Artboard1" x="0" y="0" width="8000" height="16000" style="fill:none;"/><clipPath id="_clip1"><rect id="Artboard11" serif:id="Artboard1" x="0" y="0" width="8000" height="16000"/></clipPath><g clip-path="url(#_clip1)"><rect x="0" y="0" width="8000" height="16000" style="fill:url(#_Linear2);"/><ellipse cx="-2326.79" cy="11444.6" rx="7185.58" ry="13691" style="fill:url(#_Radial3);"/><ellipse cx="7470.55" cy="4506.68" rx="7185.58" ry="13691" style="fill:url(#_Radial4);"/><ellipse cx="-4073.26" cy="8000" rx="6038" ry="10222" style="fill:url(#_Radial5);"/><path d="M3017.42,6294.76c1328.48,-766.998 4780.89,2721.94 7704.82,7786.32c2923.93,5064.39 4219.22,9798.73 2890.74,10565.7c-1328.48,766.998 -4780.89,-2721.94 -7704.82,-7786.32c-2923.93,-5064.39 -4219.22,-9798.73 -2890.74,-10565.7Z" style="fill:url(#_Radial6);"/><path d="M5297.78,8323.1c1377.31,795.189 121.651,5552.42 -2802.28,10616.8c-2923.93,5064.39 -6415.98,8530.43 -7793.29,7735.24c-1377.31,-795.189 -121.651,-5552.42 2802.28,-10616.8c2923.93,-5064.39 6415.98,-8530.43 7793.29,-7735.24Z" style="fill:url(#_Radial7);"/></g><defs><linearGradient id="_Linear2" x1="0" y1="0" x2="1" y2="0" gradientUnits="userSpaceOnUse" gradientTransform="matrix(9.79717e-13,16000,-16000,9.79717e-13,4000,0)"><stop offset="0" style="stop-color:#0c0c13;stop-opacity:1"/><stop offset="0.12" style="stop-color:#131329;stop-opacity:1"/><stop offset="0.25" style="stop-color:#1b1b40;stop-opacity:1"/><stop offset="0.6" style="stop-color:#1f1e4a;stop-opacity:1"/><stop offset="0.82" style="stop-color:#292658;stop-opacity:1"/><stop offset="1" style="stop-color:#4d468b;stop-opacity:1"/></linearGradient><radialGradient id="_Radial3" cx="0" cy="0" r="1" gradientUnits="userSpaceOnUse" gradientTransform="matrix(4.06705e-13,12655.3,-6642,7.74913e-13,-2326.79,11444.6)"><stop offset="0" style="stop-color:#00c899;stop-opacity:0.8"/><stop offset="0.55" style="stop-color:#366c8f;stop-opacity:0.24"/><stop offset="1" style="stop-color:#4d468b;stop-opacity:0"/></radialGradient><radialGradient id="_Radial4" cx="0" cy="0" r="1" gradientUnits="userSpaceOnUse" gradientTransform="matrix(4.06705e-13,12655.3,-6642,7.74913e-13,7470.55,4506.68)"><stop offset="0" style="stop-color:#0c0c13;stop-opacity:0.8"/><stop offset="0.55" style="stop-color:#3a3568;stop-opacity:0.24"/><stop offset="1" style="stop-color:#4d468b;stop-opacity:0"/></radialGradient><radialGradient id="_Radial5" cx="0" cy="0" r="1" gradientUnits="userSpaceOnUse" gradientTransform="matrix(6038,0,0,10222,-4073.26,8000)"><stop offset="0" style="stop-color:#00e0ac;stop-opacity:0.4"/><stop offset="1" style="stop-color:#00e0ac;stop-opacity:0"/></radialGradient><radialGradient id="_Radial6" cx="0" cy="0" r="1" gradientUnits="userSpaceOnUse" gradientTransform="matrix(2407.04,-1389.7,5297.78,9176.03,8315.21,15470.8)"><stop offset="0" style="stop-color:#e00034;stop-opacity:0.1"/><stop offset="1" style="stop-color:#e00034;stop-opacity:0"/></radialGradient><radialGradient id="_Radial7" cx="0" cy="0" r="1" gradientUnits="userSpaceOnUse" gradientTransform="matrix(2495.51,1440.78,-5297.78,9176.03,1.81899e-12,17499.1)"><stop offset="0" style="stop-color:#918cbb;stop-opacity:0.15"/><stop offset="1" style="stop-color:#918cbb;stop-opacity:0"/></radialGradient></defs></svg>